HIERARCHY
ROOT Junyuan_V1:Solving:Hips
{
	OFFSET 0.000000 0.000000 0.000000
	CHANNELS 6 Xposition Yposition Zposition Xrotation Yrotation Zrotation
	JOINT Junyuan_V1:Solving:Spine
	{
		OFFSET 0.000000 -8.943189 2.778120
		CHANNELS 6 Xposition Yposition Zposition Xrotation Yrotation Zrotation
		JOINT Junyuan_V1:Solving:Spine1
		{
			OFFSET 0.000000 -9.944814 1.753542
			CHANNELS 6 Xposition Yposition Zposition Xrotation Yrotation Zrotation
			JOINT Junyuan_V1:Solving:Spine2
			{
				OFFSET 0.000000 -10.059801 0.880121
				CHANNELS 6 Xposition Yposition Zposition Xrotation Yrotation Zrotation
				JOINT Junyuan_V1:Solving:Spine3
				{
					OFFSET 0.000000 -10.098228 0.000000
					CHANNELS 6 Xposition Yposition Zposition Xrotation Yrotation Zrotation
					JOINT Junyuan_V1:Solving:Neck
					{
						OFFSET 0.000000 -12.983437 -1.298342
						CHANNELS 6 Xposition Yposition Zposition Xrotation Yrotation Zrotation
						JOINT Junyuan_V1:Solving:Neck1
						{
							OFFSET 0.000000 -8.085114 -0.707354
							CHANNELS 6 Xposition Yposition Zposition Xrotation Yrotation Zrotation
							JOINT Junyuan_V1:Solving:Head
							{
								OFFSET 0.000000 -7.992695 -1.409326
								CHANNELS 6 Xposition Yposition Zposition Xrotation Yrotation Zrotation
								JOINT Junyuan_V1:Solving:HeadEnd
								{
									OFFSET 0.000000 -9.728081 0.000002
									CHANNELS 6 Xposition Yposition Zposition Xrotation Yrotation Zrotation
									End Site
									{
										OFFSET 0.000000 -9.728081 0.000002
									}
								}
							}
						}
					}
					JOINT Junyuan_V1:Solving:RightShoulder
					{
						OFFSET 0.000000 -9.273884 -6.154356
						CHANNELS 6 Xposition Yposition Zposition Xrotation Yrotation Zrotation
						JOINT Junyuan_V1:Solving:RightArm
						{
							OFFSET -19.110832 -0.000008 0.000000
							CHANNELS 6 Xposition Yposition Zposition Xrotation Yrotation Zrotation
							JOINT Junyuan_V1:Solving:RightForeArm
							{
								OFFSET -27.916382 -0.000008 0.000000
								CHANNELS 6 Xposition Yposition Zposition Xrotation Yrotation Zrotation
								JOINT Junyuan_V1:Solving:RightHand
								{
									OFFSET -21.757072 -0.000008 0.000000
									CHANNELS 6 Xposition Yposition Zposition Xrotation Yrotation Zrotation
									JOINT Junyuan_V1:Solving:RightHandThumb1
									{
										OFFSET -3.656471 2.766285 -2.718907
										CHANNELS 6 Xposition Yposition Zposition Xrotation Yrotation Zrotation
										End Site
										{
											OFFSET -5.307442 0.000000 -5.356520
										}
									}
									JOINT Junyuan_V1:Solving:RightHandMiddle1
									{
										OFFSET -9.750572 -0.000004 0.062504
										CHANNELS 6 Xposition Yposition Zposition Xrotation Yrotation Zrotation
										End Site
										{
											OFFSET -7.540642 -0.000004 0.000000
										}
									}
								}
							}
						}
					}
					JOINT Junyuan_V1:Solving:LeftShoulder
					{
						OFFSET 0.000000 -9.273884 -6.154356
						CHANNELS 6 Xposition Yposition Zposition Xrotation Yrotation Zrotation
						JOINT Junyuan_V1:Solving:LeftArm
						{
							OFFSET 19.110832 -0.000008 0.000000
							CHANNELS 6 Xposition Yposition Zposition Xrotation Yrotation Zrotation
							JOINT Junyuan_V1:Solving:LeftForeArm
							{
								OFFSET 27.916382 -0.000008 0.000000
								CHANNELS 6 Xposition Yposition Zposition Xrotation Yrotation Zrotation
								JOINT Junyuan_V1:Solving:LeftHand
								{
									OFFSET 21.757072 -0.000008 0.000000
									CHANNELS 6 Xposition Yposition Zposition Xrotation Yrotation Zrotation
									JOINT Junyuan_V1:Solving:LeftHandThumb1
									{
										OFFSET 3.656471 2.766285 -2.718907
										CHANNELS 6 Xposition Yposition Zposition Xrotation Yrotation Zrotation
										End Site
										{
											OFFSET 5.307442 0.000000 -5.356520
										}
									}
									JOINT Junyuan_V1:Solving:LeftHandMiddle1
									{
										OFFSET 9.750572 -0.000004 0.062504
										CHANNELS 6 Xposition Yposition Zposition Xrotation Yrotation Zrotation
										End Site
										{
											OFFSET 7.540642 -0.000004 0.000000
										}
									}
								}
							}
						}
					}
				}
			}
		}
	}
	JOINT Junyuan_V1:Solving:RightUpLeg
	{
		OFFSET -8.521003 0.000000 0.000000
		CHANNELS 6 Xposition Yposition Zposition Xrotation Yrotation Zrotation
		JOINT Junyuan_V1:Solving:RightLeg
		{
			OFFSET 0.000000 41.622898 -0.000006
			CHANNELS 6 Xposition Yposition Zposition Xrotation Yrotation Zrotation
			JOINT Junyuan_V1:Solving:RightFoot
			{
				OFFSET 0.000000 37.258389 -0.000006
				CHANNELS 6 Xposition Yposition Zposition Xrotation Yrotation Zrotation
				JOINT Junyuan_V1:Solving:RightForeFoot
				{
					OFFSET 0.000000 3.234154 -0.000000
					CHANNELS 6 Xposition Yposition Zposition Xrotation Yrotation Zrotation
					JOINT Junyuan_V1:Solving:RightToeBase
					{
						OFFSET 0.000000 0.000000 -12.665958
						CHANNELS 6 Xposition Yposition Zposition Xrotation Yrotation Zrotation
						JOINT Junyuan_V1:Solving:RightToeBaseEnd
						{
							OFFSET 0.000000 0.000000 -2.833065
							CHANNELS 6 Xposition Yposition Zposition Xrotation Yrotation Zrotation
							End Site
							{
								OFFSET 0.000000 -2.833061 0.000002
							}
						}
					}
				}
			}
		}
	}
	JOINT Junyuan_V1:Solving:LeftUpLeg
	{
		OFFSET 8.521003 0.000000 0.000000
		CHANNELS 6 Xposition Yposition Zposition Xrotation Yrotation Zrotation
		JOINT Junyuan_V1:Solving:LeftLeg
		{
			OFFSET 0.000000 41.622898 -0.000006
			CHANNELS 6 Xposition Yposition Zposition Xrotation Yrotation Zrotation
			JOINT Junyuan_V1:Solving:LeftFoot
			{
				OFFSET 0.000000 37.258389 -0.000006
				CHANNELS 6 Xposition Yposition Zposition Xrotation Yrotation Zrotation
				JOINT Junyuan_V1:Solving:LeftForeFoot
				{
					OFFSET 0.000000 3.234154 -0.000000
					CHANNELS 6 Xposition Yposition Zposition Xrotation Yrotation Zrotation
					JOINT Junyuan_V1:Solving:LeftToeBase
					{
						OFFSET 0.000000 0.000000 -12.665958
						CHANNELS 6 Xposition Yposition Zposition Xrotation Yrotation Zrotation
						JOINT Junyuan_V1:Solving:LeftToeBaseEnd
						{
							OFFSET 0.000000 0.000000 -4.326123
							CHANNELS 6 Xposition Yposition Zposition Xrotation Yrotation Zrotation
							End Site
							{
								OFFSET 0.000000 -4.326126 0.000000
							}
						}
					}
				}
			}
		}
	}
}
MOTION
Frames: 6
Frame Time: 0.041667
5.614618 75.642822 -88.195312 -90.303283 1.890728 -177.299294 0.000000 -8.943178 2.778125 12.367751 0.249731 1.348884 0.000001 -9.944832 1.753552 -0.526583 0.026682 0.126702 0.000001 -10.059794 0.880114 -5.192411 2.043165 -0.531626 0.000001 -10.098248 -0.000002 -3.349108 0.405981 -2.003583 -0.000000 -12.983444 -1.298309 7.011441 -0.778009 2.972833 -0.000000 -8.085133 -0.707351 -6.562764 -3.141416 -1.872727 -0.000001 -7.992706 -1.409321 -5.855807 0.353576 -1.538408 -0.000000 -9.728088 0.000001 0.000000 -0.000000 -0.000000 -0.000004 -9.273891 -6.154323 -0.000007 19.881844 11.072654 -19.110821 -0.000012 0.000002 -3.130818 -21.268598 -91.151579 -27.916401 0.000009 0.000014 10.779083 -18.612653 3.477244 -21.757069 0.000000 0.000004 0.310841 0.556066 -29.205728 -3.656453 2.766274 -2.718921 -0.000000 0.000003 -0.000006 -9.750551 -0.000007 0.062498 0.000001 0.000001 -0.000003 0.000001 -9.273903 -6.154322 -0.000006 -15.312157 -12.002809 19.110813 -0.000029 0.000015 -5.382493 43.084471 92.645437 27.916357 0.000007 0.000029 8.198373 26.201622 -3.639838 21.757063 -0.000019 0.000004 1.848151 -4.907738 20.665053 3.656459 2.766296 -2.718909 -0.000012 -0.000009 0.000003 9.750587 0.000022 0.062492 -0.000003 -0.000001 -0.000001 -8.521000 0.000005 0.000003 0.898059 16.092206 -1.685979 0.000009 41.622898 0.000014 0.180360 -0.000003 -0.000000 -0.000004 37.258408 0.000017 7.425564 -9.285106 8.148481 0.000001 3.234154 -0.000020 0.000001 -0.000000 -0.000001 -0.000002 -0.000010 -12.665971 -4.571738 0.000000 -0.000000 -0.000004 -0.000015 -2.833065 0.000000 -0.000000 -0.000001 8.521002 0.000018 -0.000007 2.335504 0.299870 -6.721973 0.000002 41.622898 0.000011 1.288403 -0.000000 0.000001 -0.000002 37.258385 0.000003 3.900631 7.224670 12.671266 -0.000001 3.234146 0.000024 -0.000000 0.000000 -0.000001 0.000001 -0.000005 -12.665954 3.395978 0.000000 0.000000 -0.000001 -0.000008 -4.326119 -0.000000 -0.000001 0.000001 
5.547472 75.683548 -88.196144 -90.313187 1.838088 -177.307080 0.000002 -8.943193 2.778124 12.396904 0.252046 1.379491 -0.000002 -9.944837 1.753560 -0.526491 0.025620 0.129017 0.000000 -10.059801 0.880118 -5.182511 2.021403 -0.532110 0.000000 -10.098224 -0.000004 -3.349041 0.404564 -1.991321 -0.000001 -12.983420 -1.298320 6.988789 -0.786103 2.960263 0.000001 -8.085108 -0.707350 -6.601291 -3.100015 -1.882436 -0.000000 -7.992677 -1.409346 -5.895626 0.359429 -1.546061 -0.000000 -9.728088 -0.000011 0.000000 0.000000 -0.000000 -0.000004 -9.273872 -6.154344 -0.000007 19.853309 11.099349 -19.110817 -0.000008 0.000006 -3.096822 -21.741261 -91.154810 -27.916386 0.000007 0.000004 10.712664 -18.902250 3.507039 -21.757065 -0.000018 -0.000006 0.365390 0.652012 -29.267545 -3.656464 2.766282 -2.718914 0.000001 -0.000000 -0.000001 -9.750578 -0.000011 0.062483 -0.000002 -0.000003 0.000002 0.000001 -9.273876 -6.154344 -0.000006 -15.315200 -11.992794 19.110813 -0.000017 0.000004 -5.267783 43.138966 92.397590 27.916370 0.000002 0.000006 8.065882 26.344079 -3.598413 21.757067 -0.000017 -0.000005 1.836271 -4.831786 20.837883 3.656443 2.766276 -2.718900 -0.000007 -0.000002 0.000003 9.750549 -0.000001 0.062504 0.000000 -0.000003 0.000000 -8.521001 0.000005 -0.000010 0.822603 16.017174 -1.620770 -0.000003 41.622890 -0.000006 0.202468 -0.000001 0.000000 0.000010 37.258381 -0.000014 7.441051 -9.194902 8.140067 -0.000001 3.234154 -0.000009 -0.000001 -0.000000 -0.000001 0.000005 -0.000005 -12.665971 -4.577116 0.000000 0.000001 0.000000 -0.000008 -2.833075 0.000000 -0.000001 -0.000001 8.521006 -0.000019 -0.000006 2.319099 0.291499 -6.663526 0.000000 41.622890 -0.000048 1.261734 0.000000 -0.000000 0.000002 37.258381 -0.000019 3.918258 7.180982 12.639204 0.000002 3.234146 -0.000013 -0.000000 0.000001 -0.000001 0.000001 0.000003 -12.665969 3.401198 0.000000 0.000000 0.000002 0.000000 -4.326125 0.000000 -0.000000 -0.000000 
5.481193 75.730186 -88.190674 -90.346539 1.784902 -177.278106 0.000000 -8.943153 2.778121 12.421310 0.258987 1.360744 -0.000000 -9.944827 1.753538 -0.525464 0.024740 0.131991 0.000000 -10.059791 0.880129 -5.165179 2.013876 -0.523884 0.000000 -10.098207 0.000004 -3.348128 0.401029 -1.971237 0.000001 -12.983459 -1.298337 6.915891 -0.790933 2.949568 0.000002 -8.085063 -0.707374 -6.634697 -3.104673 -1.896431 0.000001 -7.992695 -1.409337 -5.936470 0.367068 -1.563413 0.000000 -9.728096 0.000004 0.000000 -0.000000 -0.000000 -0.000003 -9.273903 -6.154354 -0.000008 19.842734 11.143813 -19.110817 0.000001 0.000009 -3.074426 -22.313827 -91.180539 -27.916361 0.000003 -0.000001 10.670002 -19.229581 3.550853 -21.757063 -0.000000 0.000003 0.389144 0.694722 -29.255558 -3.656476 2.766301 -2.718899 0.000003 -0.000003 0.000003 -9.750570 0.000018 0.062514 0.000003 -0.000001 0.000002 -0.000001 -9.273907 -6.154354 -0.000006 -15.382641 -12.005882 19.110825 -0.000014 0.000013 -5.174609 43.190592 92.165500 27.916359 -0.000005 -0.000007 7.654045 26.516524 -3.433548 21.757065 -0.000008 -0.000008 1.844740 -4.792067 21.083621 3.656445 2.766291 -2.718910 -0.000007 0.000012 0.000006 9.750558 0.000002 0.062510 -0.000003 0.000007 0.000001 -8.521002 0.000008 0.000007 0.712177 16.011063 -1.592273 0.000004 41.622902 -0.000016 0.270949 0.000000 0.000000 0.000010 37.258408 -0.000036 7.442490 -9.206846 8.136930 -0.000001 3.234154 -0.000002 -0.000002 0.000001 -0.000001 0.000001 -0.000005 -12.665945 -4.636082 -0.000000 -0.000001 0.000003 -0.000008 -2.833084 -0.000000 -0.000000 -0.000001 8.521002 0.000023 -0.000018 2.262833 0.289714 -6.615940 0.000000 41.622883 0.000010 1.255071 0.000000 0.000001 -0.000001 37.258385 -0.000015 3.905558 6.967873 12.449799 -0.000005 3.234154 0.000015 -0.000002 -0.000001 0.000000 -0.000001 -0.000007 -12.665972 3.406306 -0.000001 -0.000001 0.000001 -0.000015 -4.326113 0.000000 0.000000 -0.000000 
5.412111 75.772491 -88.193459 -90.356170 1.716078 -177.310522 -0.000000 -8.943209 2.778134 12.440810 0.263682 1.419722 -0.000002 -9.944820 1.753546 -0.524600 0.022509 0.135388 -0.000001 -10.059814 0.880106 -5.163258 1.988186 -0.523669 0.000001 -10.098222 -0.000004 -3.332350 0.398193 -1.960417 0.000000 -12.983404 -1.298354 6.917844 -0.783370 2.950583 0.000002 -8.085089 -0.707342 -6.655226 -3.033554 -1.887215 0.000001 -7.992676 -1.409335 -5.975989 0.378695 -1.575615 -0.000001 -9.728073 -0.000012 -0.000000 -0.000000 -0.000000 -0.000003 -9.273880 -6.154372 -0.000006 19.800034 11.170758 -19.110817 0.000002 -0.000001 -3.051618 -22.583271 -91.229191 -27.916407 0.000002 0.000009 10.855686 -19.431994 3.650450 -21.757051 -0.000006 -0.000006 0.400460 0.713681 -29.298820 -3.656467 2.766284 -2.718911 0.000006 -0.000005 -0.000005 -9.750574 0.000009 0.062511 -0.000002 -0.000002 -0.000002 -0.000001 -9.273876 -6.154372 -0.000004 -15.361633 -12.024650 19.110821 -0.000050 -0.000002 -5.065363 42.819849 91.986126 27.916368 -0.000006 0.000002 8.285721 26.609821 -3.732074 21.757057 -0.000011 -0.000008 1.870713 -4.769666 21.445054 3.656438 2.766268 -2.718905 0.000006 0.000000 0.000006 9.750542 0.000002 0.062510 -0.000010 0.000000 -0.000000 -8.521006 -0.000012 0.000009 0.601080 16.029061 -1.498825 0.000008 41.622898 -0.000013 0.353428 -0.000003 -0.000000 -0.000005 37.258381 -0.000012 7.442808 -9.274413 8.158526 -0.000004 3.234146 -0.000008 -0.000001 0.000001 -0.000001 -0.000001 -0.000015 -12.665944 -4.750679 -0.000000 0.000001 0.000000 -0.000008 -2.833059 -0.000000 0.000000 0.000001 8.521003 -0.000020 0.000017 2.219700 0.199083 -6.552425 -0.000001 41.622921 0.000007 1.274239 -0.000000 -0.000001 0.000003 37.258396 0.000001 3.925363 7.109990 12.551559 0.000001 3.234146 0.000007 -0.000001 0.000000 -0.000002 0.000002 -0.000004 -12.665964 3.429450 -0.000001 -0.000000 0.000003 -0.000015 -4.326108 0.000000 0.000001 -0.000001 
5.342253 75.811005 -88.197388 -90.348028 1.658897 -177.326628 -0.000000 -8.943174 2.778116 12.476321 0.271515 1.465691 0.000001 -9.944808 1.753540 -0.517715 0.021660 0.133861 0.000000 -10.059816 0.880126 -5.156590 1.958263 -0.521021 -0.000000 -10.098237 -0.000001 -3.324983 0.393880 -1.958421 0.000000 -12.983437 -1.298338 6.915376 -0.793981 2.935023 -0.000001 -8.085109 -0.707337 -6.683965 -3.018116 -1.883592 0.000000 -7.992694 -1.409310 -6.021036 0.378354 -1.572014 -0.000000 -9.728043 -0.000023 0.000000 -0.000000 0.000000 -0.000006 -9.273907 -6.154373 -0.000008 19.779188 11.195470 -19.110819 -0.000011 -0.000013 -3.028381 -22.904121 -91.261306 -27.916367 0.000001 0.000007 10.987449 -19.633082 3.732368 -21.757057 -0.000002 0.000003 0.402794 0.719012 -29.258625 -3.656474 2.766286 -2.718913 -0.000002 -0.000005 -0.000004 -9.750580 -0.000003 0.062497 0.000004 -0.000003 0.000000 -0.000002 -9.273907 -6.154373 -0.000007 -15.324626 -12.030476 19.110809 0.000002 -0.000001 -4.927308 42.545276 91.792005 27.916353 -0.000010 0.000015 8.529602 26.724853 -3.858558 21.757069 -0.000002 -0.000013 1.875000 -4.680619 21.859520 3.656465 2.766268 -2.718904 -0.000005 -0.000002 0.000001 9.750582 -0.000014 0.062485 -0.000005 -0.000002 -0.000007 -8.521003 0.000028 -0.000007 0.511239 16.065501 -1.421407 0.000007 41.622898 -0.000010 0.447752 0.000001 -0.000000 -0.000005 37.258392 0.000000 7.443449 -9.362220 8.181779 0.000004 3.234154 -0.000033 -0.000001 0.000001 -0.000002 0.000001 0.000009 -12.665966 -4.791678 -0.000001 -0.000000 -0.000001 -0.000015 -2.833055 0.000000 0.000000 -0.000000 8.521003 0.000029 -0.000010 2.202367 0.155278 -6.496105 0.000001 41.622913 -0.000021 1.284639 0.000000 0.000001 -0.000001 37.258373 -0.000006 3.938241 7.165015 12.588572 0.000001 3.234146 0.000014 -0.000000 0.000001 -0.000002 -0.000000 -0.000005 -12.665937 3.434352 -0.000001 0.000001 -0.000000 -0.000008 -4.326125 -0.000002 -0.000000 0.000000 
5.276385 75.856369 -88.197266 -90.365752 1.604386 -177.323869 -0.000001 -8.943191 2.778114 12.503000 0.273268 1.494323 -0.000000 -9.944796 1.753538 -0.522162 0.022046 0.132617 -0.000000 -10.059813 0.880133 -5.143928 1.951501 -0.524206 0.000003 -10.098216 -0.000000 -3.314802 0.387442 -1.965122 -0.000001 -12.983425 -1.298330 6.896954 -0.786825 2.917440 0.000002 -8.085135 -0.707333 -6.725973 -3.017661 -1.862369 0.000001 -7.992687 -1.409343 -6.047879 0.374740 -1.561089 -0.000000 -9.728088 0.000002 -0.000000 0.000000 -0.000000 -0.000005 -9.273861 -6.154348 -0.000010 19.780486 11.244902 -19.110826 0.000002 0.000001 -3.049732 -23.158434 -91.331562 -27.916386 0.000005 -0.000002 11.120351 -19.780617 3.805714 -21.757080 -0.000002 -0.000013 0.398107 0.712428 -29.197464 -3.656474 2.766292 -2.718903 0.000004 -0.000003 -0.000004 -9.750598 0.000009 0.062500 0.000002 -0.000001 -0.000003 0.000001 -9.273861 -6.154340 -0.000008 -15.312565 -12.034711 19.110815 -0.000018 0.000016 -4.794588 42.327997 91.600507 27.916370 -0.000006 0.000002 8.599617 26.857853 -3.908487 21.757078 -0.000008 -0.000001 1.856296 -4.531136 22.305820 3.656464 2.766297 -2.718934 -0.000003 0.000005 0.000000 9.750551 0.000011 0.062493 0.000001 0.000001 0.000002 -8.521002 -0.000004 0.000008 0.388093 16.119870 -1.364510 0.000007 41.622929 -0.000009 0.559308 -0.000004 0.000000 -0.000011 37.258396 -0.000003 7.435218 -9.453348 8.213259 0.000003 3.234154 0.000004 -0.000002 0.000000 -0.000002 -0.000001 -0.000021 -12.665967 -4.776401 -0.000000 -0.000001 -0.000001 -0.000008 -2.833047 0.000000 -0.000000 -0.000001 8.521001 -0.000005 -0.000004 2.132977 0.047477 -6.452352 0.000002 41.622894 0.000003 1.321580 -0.000000 0.000001 -0.000003 37.258392 0.000018 3.926749 7.224405 12.591834 0.000001 3.234154 -0.000015 -0.000002 0.000001 -0.000001 0.000000 -0.000009 -12.665958 3.459782 -0.000001 -0.000001 -0.000001 -0.000008 -4.326126 -0.000001 -0.000001 -0.000001 
